<svg id="animoca_logo" data-name="animoca logo" xmlns="http://www.w3.org/2000/svg" xmlns:xlink="http://www.w3.org/1999/xlink" width="48.254" height="27.266" viewBox="0 0 48.254 27.266">
  <defs>
    <clipPath id="clip-path">
      <rect id="Rectangle_5965" data-name="Rectangle 5965" width="48.254" height="27.265" fill="#1228f3"/>
    </clipPath>
  </defs>
  <g id="Group_19176" data-name="Group 19176" transform="translate(0 0)" clip-path="url(#clip-path)">
    <path id="Path_51547" data-name="Path 51547" d="M26.011,9.567,26,9.56l.008.007M41.059,8.231h0M14.26,1.8l1.264-.114a.415.415,0,0,0,.4-.422V.684a.331.331,0,0,0-.4-.337L14.26.462a.408.408,0,0,0-.4.41V1.45a.336.336,0,0,0,.4.35M37.869,6.751a2.244,2.244,0,0,0,1.621.427,6.564,6.564,0,0,0,2.033-.443.426.426,0,0,0,.269-.394v-.5a.333.333,0,0,0-.463-.336,8.383,8.383,0,0,1-1.839.332.672.672,0,0,1-.538-.173.664.664,0,0,1-.221-.508V2.752a.8.8,0,0,1,.221-.547.808.808,0,0,1,.538-.27,7.969,7.969,0,0,1,1.836,0,.393.393,0,0,0,.466-.42v-.5a.349.349,0,0,0-.257-.346A6.143,6.143,0,0,0,39.491.6a2.664,2.664,0,0,0-1.635.735,2.109,2.109,0,0,0-.68,1.561V5.3a1.738,1.738,0,0,0,.693,1.451M17.491,9.17l.756-.068a.415.415,0,0,0,.4-.422V4.559a.835.835,0,0,1,.221-.548.807.807,0,0,1,.538-.269l1.016-.092a.635.635,0,0,1,.525.184.651.651,0,0,1,.221.5v4.12a.337.337,0,0,0,.4.35l.768-.07a.291.291,0,0,0,.11-.034.438.438,0,0,0,.277-.387V4.19a.831.831,0,0,1,.221-.548.807.807,0,0,1,.538-.269L24.5,3.281a.674.674,0,0,1,.538.183.651.651,0,0,1,.221.5v4.12a.336.336,0,0,0,.4.35l.755-.068a.415.415,0,0,0,.4-.422V3.82a1.7,1.7,0,0,0-.693-1.438A2.241,2.241,0,0,0,24.5,1.954l-1.016.092a2.632,2.632,0,0,0-1.537.641,2.228,2.228,0,0,0-1.524-.364l-1.016.092a2.713,2.713,0,0,0-1.635.723,2.109,2.109,0,0,0-.68,1.562V8.82a.336.336,0,0,0,.4.35m8.538.412a1.565,1.565,0,0,1,.214.26q.11.161.226.336l2.78,3.973V9.91a.994.994,0,0,1,.178-.635l.01-.011-3.425.3.018.015M15.276,2.789l-.769.07a.409.409,0,0,0-.4.41V9.09a.336.336,0,0,0,.4.35l.769-.07a.415.415,0,0,0,.4-.422V3.127a.331.331,0,0,0-.4-.338m12.314-.62a.736.736,0,0,0,.224-.192l1.528,1.574-.911.308a.467.467,0,0,0-.158-.227.552.552,0,0,0-.759.124.528.528,0,0,0,.056.753.551.551,0,0,0,.758-.125.579.579,0,0,0,.109-.215l.915.426c0,.018,0,.036,0,.054A3.184,3.184,0,0,0,32.894,7.87a3.96,3.96,0,0,0,3.545-3.864A3.184,3.184,0,0,0,32.894.784a3.832,3.832,0,0,0-1.981.784l-.772-.535a.616.616,0,0,0,.1-.3.515.515,0,0,0-.545-.55.641.641,0,0,0-.6.6.514.514,0,0,0,.544.549.6.6,0,0,0,.244-.065l.169,1.06-2.088-.708a.62.62,0,0,0-.053-.342.614.614,0,0,0-.867-.243.7.7,0,0,0-.321.895.613.613,0,0,0,.866.243m6.091,3.365a.422.422,0,0,1,.47.427.525.525,0,0,1-.47.513.422.422,0,0,1-.47-.428.525.525,0,0,1,.47-.512m-1.635.148a.423.423,0,0,1,.47.427.525.525,0,0,1-.47.513.422.422,0,0,1-.47-.427.525.525,0,0,1,.47-.512m3.6,3.032h0M34.57,9.909l-.954.079v4.84l1.1-.09q.36-.03.565-.066a1.878,1.878,0,0,0,.423-.132,1.286,1.286,0,0,0,.38-.25,2.841,2.841,0,0,0,.725-2.171,2.957,2.957,0,0,0-.319-1.555,1.266,1.266,0,0,0-.786-.6,3.8,3.8,0,0,0-1.129-.05M19.119,14.385l2.132-.176-1.076-2.854Zm25.6-4.9c-.069,0-.072.049-.072.049s0,.012,0,.018a.74.74,0,0,1-.183.48.638.638,0,0,1-.455.244.491.491,0,0,1-.377-.093,1.484,1.484,0,0,1-.28-.383,1.639,1.639,0,0,0-.467-.591,1.3,1.3,0,0,0-.876-.154,1.629,1.629,0,0,0-.9.32.787.787,0,0,0-.343.619.558.558,0,0,0,.117.36.872.872,0,0,0,.321.241,1.988,1.988,0,0,0,.414.141q.209.046.691.128a10.27,10.27,0,0,1,1.093.221,3.027,3.027,0,0,1,.832.345A1.508,1.508,0,0,1,44.77,12c.007.013.013.028.02.041V9.536a.065.065,0,0,0-.068-.049m-12-.535c-.029.009-.057.019-.083.029l.083-.007Zm2.929-.237h0m8,6.262a3.863,3.863,0,0,1-1.524.418,3.278,3.278,0,0,1-1.743-.255,2.057,2.057,0,0,1-.791-.7,1.62,1.62,0,0,1-.3-.906.7.7,0,0,1,.647-.691.512.512,0,0,1,.387.114,1.029,1.029,0,0,1,.27.411,2.6,2.6,0,0,0,.294.545,1.059,1.059,0,0,0,.445.34,1.585,1.585,0,0,0,.755.086,1.831,1.831,0,0,0,1.044-.385.988.988,0,0,0,.4-.78.729.729,0,0,0-.217-.558,1.259,1.259,0,0,0-.56-.292,9.127,9.127,0,0,0-.918-.172,6.3,6.3,0,0,1-1.288-.314,1.852,1.852,0,0,1-.823-.589,1.593,1.593,0,0,1-.3-1.009,1.9,1.9,0,0,1,.321-1.072,2.278,2.278,0,0,1,.93-.78,3.273,3.273,0,0,1,.358-.147l-5.382.476a3.877,3.877,0,0,1,.545.053,2.106,2.106,0,0,1,.954.432,3.328,3.328,0,0,1,1.115,2.807,5.824,5.824,0,0,1-.112,1.181,3.741,3.741,0,0,1-.346.984,3.345,3.345,0,0,1-.6.811,2.78,2.78,0,0,1-.628.465,3.061,3.061,0,0,1-.733.279,5.743,5.743,0,0,1-.883.136l-1.884.155a1.132,1.132,0,0,1-.594-.07.494.494,0,0,1-.26-.314,2.071,2.071,0,0,1-.061-.557V9.849a.993.993,0,0,1,.209-.693.721.721,0,0,1,.264-.175l-2.26.2L30.4,9.2a.863.863,0,0,1,.18.605v5.608q0,.939-.779,1a1,1,0,0,1-.35-.027.8.8,0,0,1-.292-.153,1.519,1.519,0,0,1-.253-.264q-.117-.153-.234-.314l-2.711-3.93V15.9a.954.954,0,0,1-.19.633.687.687,0,0,1-.487.249.574.574,0,0,1-.492-.171.848.848,0,0,1-.185-.6v-5.5a1.613,1.613,0,0,1,.078-.556.852.852,0,0,1,.2-.289l-4.005.354a.829.829,0,0,1,.141.15,1.86,1.86,0,0,1,.209.369q.085.2.217.534l1.864,4.448a2.17,2.17,0,0,1,.219.746.689.689,0,0,1-.207.472.743.743,0,0,1-.5.248.621.621,0,0,1-.292-.037.531.531,0,0,1-.2-.149,1.364,1.364,0,0,1-.178-.306q-.095-.208-.163-.368l-.341-.867-2.9.239-.341.943a3.523,3.523,0,0,1-.341.75.592.592,0,0,1-.462.225.628.628,0,0,1-.482-.16.558.558,0,0,1-.209-.435,1.048,1.048,0,0,1,.049-.306q.049-.16.161-.446l1.825-4.781.187-.495a2.677,2.677,0,0,1,.234-.484,1.05,1.05,0,0,1,.134-.169l-4.683.414c.04.012.079.024.117.038a1.617,1.617,0,0,1,.594.355,1.582,1.582,0,0,1,.392.578,1.947,1.947,0,0,1,.134.726,1.918,1.918,0,0,1-.45,1.312,2.863,2.863,0,0,1-1.365.789,2.35,2.35,0,0,1,.735.542,5.436,5.436,0,0,1,.626.8,5.687,5.687,0,0,1,.428.777,1.5,1.5,0,0,1,.153.486.545.545,0,0,1-.09.287.713.713,0,0,1-.246.239.825.825,0,0,1-.36.11.665.665,0,0,1-.409-.081.972.972,0,0,1-.285-.266q-.119-.165-.324-.489l-.579-.915a4.718,4.718,0,0,0-.557-.761,1.227,1.227,0,0,0-.5-.338,1.666,1.666,0,0,0-.638-.05l-.506.042v2.291a1.018,1.018,0,0,1-.2.683.742.742,0,0,1-.521.257.614.614,0,0,1-.535-.18.927.927,0,0,1-.19-.641V11.659a.993.993,0,0,1,.209-.693l.026-.024-2.857.253a1.593,1.593,0,0,1,.2.086,1.566,1.566,0,0,1,.448.345,1.515,1.515,0,0,1,.3.486,1.639,1.639,0,0,1,.1.583,1.813,1.813,0,0,1-1.071,1.655,1.574,1.574,0,0,1,1.407,1.625A2.112,2.112,0,0,1,7.86,17.853a3.145,3.145,0,0,1-.75.254,7.818,7.818,0,0,1-.988.138l-2.181.18a.847.847,0,0,1-.674-.156.482.482,0,0,1-.037-.04v.282a.141.141,0,0,0,.079.066l33.168,8.689L44.79,14.174v-.4a2.285,2.285,0,0,1-.161.317,2.5,2.5,0,0,1-.976.888M44.8,13.745l-.01.024.01-.024M47.573.44A2.241,2.241,0,0,0,45.952.012,8.061,8.061,0,0,0,44.17.324a.426.426,0,0,0-.311.4v.521a.378.378,0,0,0,.079.247.316.316,0,0,0,.281.108.622.622,0,0,0,.084-.015,9.535,9.535,0,0,1,1.65-.247.636.636,0,0,1,.525.184.65.65,0,0,1,.221.5v.344l-1.762.159a2.663,2.663,0,0,0-1.635.734,2.071,2.071,0,0,0-.68,1.55,1.741,1.741,0,0,0,.693,1.451,2.247,2.247,0,0,0,1.622.427l2.93-.265A.413.413,0,0,0,48.254,6V1.879A1.744,1.744,0,0,0,47.573.44M46.7,5.188l-1.762.159a.671.671,0,0,1-.538-.173.662.662,0,0,1-.221-.508.78.78,0,0,1,.221-.536.807.807,0,0,1,.538-.269L46.7,3.7ZM11.681,13.7l1.295-.107a3.757,3.757,0,0,0,.876-.162,1.144,1.144,0,0,0,.543-.351.943.943,0,0,0,.187-.611.863.863,0,0,0-.151-.51.813.813,0,0,0-.419-.3,2.957,2.957,0,0,0-1-.025l-1.334.11V13.7ZM7.149,15.236a2.038,2.038,0,0,0-1.134-.15l-1.5.124v2.082l1.553-.128q1.465-.121,1.465-1.176a.786.786,0,0,0-.38-.752m.312-5.158.756-.068a.414.414,0,0,0,.4-.422V5.467a.834.834,0,0,1,.221-.548.807.807,0,0,1,.538-.269l1.016-.092a.636.636,0,0,1,.525.184.651.651,0,0,1,.221.5v4.12a.336.336,0,0,0,.4.35l.769-.07a.412.412,0,0,0,.387-.421V5.1A1.7,1.7,0,0,0,12,3.66a2.222,2.222,0,0,0-1.609-.429l-1.016.092a2.714,2.714,0,0,0-1.635.723,2.109,2.109,0,0,0-.68,1.562v4.12a.336.336,0,0,0,.4.35m.152,1.116-.007,0,.007,0m-3.1,2.98,1.324-.109a2.77,2.77,0,0,0,.835-.171.9.9,0,0,0,.45-.426A.931.931,0,0,0,7.242,13a.647.647,0,0,0-.385-.686,2.856,2.856,0,0,0-1.173-.081l-1.173.1v1.844ZM5.633,9.858V5.737A1.743,1.743,0,0,0,4.953,4.3,2.242,2.242,0,0,0,3.331,3.87a8.068,8.068,0,0,0-1.782.312.426.426,0,0,0-.311.4V5.1a.379.379,0,0,0,.079.247A.317.317,0,0,0,1.6,5.46a.618.618,0,0,0,.083-.015A9.541,9.541,0,0,1,3.331,5.2a.637.637,0,0,1,.525.184.652.652,0,0,1,.221.5v.344l-1.762.159a2.663,2.663,0,0,0-1.635.734A2.071,2.071,0,0,0,0,8.666a1.74,1.74,0,0,0,.694,1.451,2.246,2.246,0,0,0,1.622.427l2.93-.265a.412.412,0,0,0,.387-.421M4.077,9.046l-1.762.159a.671.671,0,0,1-.538-.173.661.661,0,0,1-.221-.508.779.779,0,0,1,.221-.536.806.806,0,0,1,.538-.269L4.077,7.56Z" transform="translate(0 0)" fill="#1228f3" fill-rule="evenodd"/>
  </g>
</svg>
