<svg id="Group_45158" data-name="Group 45158" xmlns="http://www.w3.org/2000/svg" xmlns:xlink="http://www.w3.org/1999/xlink" width="75.706" height="17.857" viewBox="0 0 75.706 17.857">
  <defs>
    <clipPath id="clip-path">
      <rect id="Rectangle_16461" data-name="Rectangle 16461" width="75.706" height="17.858" fill="#1228f3"/>
    </clipPath>
  </defs>
  <g id="Group_45157" data-name="Group 45157" clip-path="url(#clip-path)">
    <path id="Path_88685" data-name="Path 88685" d="M332.861,10.894c0-2.01-.021-4.019.008-6.028a4.877,4.877,0,0,1,1.14-3.33,4.425,4.425,0,0,1,3.4-1.44c3.54-.03,7.081-.01,10.622-.02.713,0,1.427-.04,2.139-.074.4-.019.558.155.543.548-.194,4.956-.006,9.915-.09,14.872a2.207,2.207,0,0,1-2.252,2.369c-.89.056-1.786.014-2.679.031-.4.007-.439-.233-.438-.54q.005-2.091,0-4.181,0-3.525-.011-7.049c0-.22.1-.532-.275-.567a.645.645,0,0,0-.7.415,1.754,1.754,0,0,0-.079.719q0,4.108,0,8.216a6.1,6.1,0,0,1-.068.918,2.13,2.13,0,0,1-2.287,2.049c-.649.027-1.3-.013-1.948.017-.453.022-.589-.155-.586-.592.015-2.317.007-4.635.007-6.952,0-1.394,0-2.787-.007-4.181,0-.23.064-.523-.32-.53a.543.543,0,0,0-.625.533c-.016.161-.01.324-.01.486q0,4.011,0,8.022a6.91,6.91,0,0,1-.079,1.065,2.23,2.23,0,0,1-2.3,2.123c-.891.048-1.786.006-2.679.021-.416.007-.417-.257-.417-.55q0-3.184,0-6.369Z" transform="translate(-294.264 0)" fill="#1228f3"/>
    <path id="Path_88686" data-name="Path 88686" d="M10.613.378q2.972,0,5.943,0a4.3,4.3,0,0,0,.727-.045c.395-.069.586.047.568.473a25.547,25.547,0,0,1-.088,2.956,1.968,1.968,0,0,1-1.844,1.878,10.471,10.471,0,0,1-2.671.079,40.265,40.265,0,0,0-5.641.058A1.954,1.954,0,0,0,5.561,7.764,32.493,32.493,0,0,0,5.5,11.837c0,.584.345.879.944.883,1.689.012,3.377,0,5.066,0a.987.987,0,0,0,.559-.142.572.572,0,0,0,.283-.664c-.074-.268-.313-.245-.522-.245-1.591,0-3.183-.016-4.774.006-.466.006-.641-.147-.618-.614.037-.758-.019-1.518.087-2.277A2.15,2.15,0,0,1,8.68,6.81q3.458-.035,6.917,0a2.019,2.019,0,0,1,2.157,1.945,48.954,48.954,0,0,1,.009,7.271,2.112,2.112,0,0,1-2.372,2.055q-4.506.017-9.012,0A16.252,16.252,0,0,1,3.8,18.012,4.373,4.373,0,0,1,.1,14.176,19.753,19.753,0,0,1,0,11.56C0,9.44-.007,7.32.017,5.2A5.164,5.164,0,0,1,.749,2.417,4.22,4.22,0,0,1,4.378.4C6.455.345,8.534.385,10.613.385Z" transform="translate(0 -0.277)" fill="#1228f3"/>
    <path id="Path_88687" data-name="Path 88687" d="M178.3,12.446h5.259c.716,0,.711,0,.72.738a14.684,14.684,0,0,1-.191,2.856,1.866,1.866,0,0,1-1.807,1.676,10.009,10.009,0,0,1-1.21.1q-4.918.012-9.836,0a4.926,4.926,0,0,1-3.059-.957,4.591,4.591,0,0,1-1.716-3.811c-.043-2.8-.052-5.61,0-8.413A4.41,4.41,0,0,1,171.124.085c3.441-.01,6.882,0,10.323-.006.745,0,1.491-.036,2.235-.076.428-.023.615.11.6.576-.022.745-.022,1.489-.1,2.232C184,4.6,183.07,5.436,181.15,5.447c-2.613.016-5.226,0-7.839.005-.259,0-.52,0-.779.018a.554.554,0,0,0-.586.627c.016.42.316.415.625.415q5.478,0,10.955,0c.756,0,.746,0,.751.753a11.452,11.452,0,0,1-.186,2.369,1.873,1.873,0,0,1-1.758,1.674,7.2,7.2,0,0,1-1.164.08c-2.873,0-5.746,0-8.618.007-.2,0-.531-.158-.553.261-.019.356.07.658.466.743a3.053,3.053,0,0,0,.629.045q2.6,0,5.21,0v-.006Z" transform="translate(-147.131 0)" fill="#1228f3"/>
    <path id="Path_88688" data-name="Path 88688" d="M505.928,17.848c-2.128,0-4.256-.012-6.384.01-.452,0-.582-.13-.567-.579.028-.84-.043-1.68.018-2.523a2.04,2.04,0,0,1,2.053-2.2,45.816,45.816,0,0,1,4.868-.084c1.446-.018,2.892,0,4.338,0a1.516,1.516,0,0,0,.759-.136.634.634,0,0,0,.328-.7c-.05-.3-.324-.217-.518-.217-2.4-.006-4.809,0-7.213-.008a16.08,16.08,0,0,1-2.578-.078,2.049,2.049,0,0,1-1.912-2,32.585,32.585,0,0,1-.03-5.685,3.6,3.6,0,0,1,3.14-3.413,22.561,22.561,0,0,1,4.806-.173c.227.014.454.03.681.03q3.485,0,6.969,0a9.451,9.451,0,0,0,1.556-.056c.283-.047.527,0,.524.38-.008,1.071.029,2.144-.023,3.212a1.693,1.693,0,0,1-1.728,1.751c-2.318.208-4.642.049-6.964.1-.861.019-1.722,0-2.583,0a1.742,1.742,0,0,0-.624.086.578.578,0,0,0-.359.671c.025.347.3.285.513.287.764.006,1.527,0,2.291,0q3.314,0,6.628,0a5.236,5.236,0,0,1,.825.046,1.992,1.992,0,0,1,1.952,1.956,25.368,25.368,0,0,1-.038,5.536,4.3,4.3,0,0,1-4.44,3.772c-1.056.011-2.112.009-3.168.011q-1.56,0-3.119,0v0Z" transform="translate(-441.121 0)" fill="#1228f3"/>
  </g>
</svg>
