<svg xmlns="http://www.w3.org/2000/svg" xmlns:xlink="http://www.w3.org/1999/xlink" width="297.843" height="35.587" viewBox="0 0 297.843 35.587">
  <defs>
    <clipPath id="clip-path">
      <rect id="Rectangle_16460" data-name="Rectangle 16460" width="297.843" height="35.587" transform="translate(0 0)" fill="#fff"/>
    </clipPath>
  </defs>
  <g id="Group_45487" data-name="Group 45487" style="mix-blend-mode: normal;isolation: isolate">
    <g id="Group_45155" data-name="Group 45155" transform="translate(0 0)" clip-path="url(#clip-path)">
      <path id="Path_88664" data-name="Path 88664" d="M608.328.088h4.093c1.027.133,2.055.243,3.061.442a17.971,17.971,0,0,1,7.828,3.1c.849.641,1.767,1.216,2.66,1.814.157.11.313.177.536.31v-4.2c0-.6.2-.8.805-.8h24.1a1.108,1.108,0,0,1,.6.133c1.566,1.084,3.107,2.167,4.651,3.251a.871.871,0,0,1,.4.8v7.011c0,.642-.157.8-.783.8h-5.5a1.257,1.257,0,0,0,.426.354c1.228.73,2.459,1.438,3.69,2.167a.835.835,0,0,1,.445.818v6.48c0,.73-.179.907-.915.907h-1.5a.736.736,0,0,0,.288.332c1.3.818,2.572,1.659,3.869,2.477a1.075,1.075,0,0,1,.56,1.039c-.025,2.212,0,4.424,0,6.635,0,.951-.069,1.017-1.052,1.017H633.035a3.668,3.668,0,0,1-2.3-.686c-1.1-.8-2.214-1.57-3.333-2.322-.426-.288-1.074-.376-.827-1.194a1.653,1.653,0,0,1-.225.133,13.144,13.144,0,0,1-7.869,4.313,27.8,27.8,0,0,1-8.563.2,24.375,24.375,0,0,1-8.877-2.544c-1.655-.907-3.175-2.035-4.762-3.074-.179-.111-.358-.221-.537-.354.894,1.482,1.878,2.853,2.817,4.268.156.243.313.686.2.885a1.147,1.147,0,0,1-.849.332q-5.031.033-10.062,0a2.036,2.036,0,0,1-1.006-.288c-1.319-.818-2.594-1.7-3.913-2.521a4.542,4.542,0,0,1-1.476-1.5c-.38-.619-.827-1.217-1.23-1.814l-.112.044v5.2c0,.774-.134.907-.894.907-2.951,0-5.88-.022-8.832,0a3.675,3.675,0,0,1-2.3-.685c-.6-.442-1.252-.84-1.968-1.305v.8c0,1.194,0,1.194-1.252,1.194-7.513,0-15.025-.044-22.538.022a5.974,5.974,0,0,1-4-1.261,13.16,13.16,0,0,0-2.46-1.7c-.894-.42-.917-1.04-.917-1.836V11.435a1.125,1.125,0,0,0-.291.4q-4.8,11.213-9.614,22.449a.976.976,0,0,1-1.051.686c-3.063-.022-6.126,0-9.212-.022a1.944,1.944,0,0,1-1.051-.31c-1.364-.862-2.728-1.769-4.069-2.7a2.372,2.372,0,0,1-.872-.885Q502.48,16.422,496.22,1.747c-.268-.641-.022-1.039.671-1.039h10.553a1.118,1.118,0,0,1,.6.155c1.5,1,3,1.991,4.472,3.03a2.325,2.325,0,0,1,.738.929c1.073,2.5,2.1,5.043,3.13,7.542.067.155.156.332.268.553,1.677-3.915,3.287-7.741,4.919-11.545a.916.916,0,0,1,.939-.686h9.525a1.739,1.739,0,0,1,.783.265c.693.42,1.364.885,2.124,1.371v-.8c0-.641.2-.84.872-.84h24.058a1.276,1.276,0,0,1,.648.155c.805.509,1.61,1.062,2.415,1.614.291.2.6.42.961.664V1.637c0-.818.134-.951.962-.951,4.941,0,9.86-.022,14.8,0a18.564,18.564,0,0,1,5.59.885,17.845,17.845,0,0,1,5.12,2.853c1.856,1.371,3.689,2.743,5.523,4.136a2.807,2.807,0,0,1,.111-.354,9.17,9.17,0,0,1,2.124-3.87A12.961,12.961,0,0,1,605,.553C606.114.31,607.254.177,608.372,0ZM565.2,2.035V30.5h8.787c0-.177.022-.31.022-.465V24.462a1.261,1.261,0,0,1,1.409-1.438h1.453a1.558,1.558,0,0,1,1.476.774c1.431,2.123,2.884,4.224,4.315,6.348a.757.757,0,0,0,.738.4h8.34a3.836,3.836,0,0,0,.447-.044,5.245,5.245,0,0,0-.291-.442c-1.587-2.3-3.2-4.623-4.785-6.923a1.321,1.321,0,0,1,.425-2.146,12.61,12.61,0,0,0,2.079-1.659,8.818,8.818,0,0,0,2.5-5.927A9.584,9.584,0,0,0,587.8,4.247a14.4,14.4,0,0,0-8-2.234c-4.673-.066-9.368-.022-14.041-.022a4.95,4.95,0,0,0-.559.022Zm-28.932,0V30.5h23.723V24.2H546.349c-.961,0-1.409-.442-1.409-1.394V20.636c0-1.194.4-1.592,1.61-1.592h10.6c.447,0,.581-.133.581-.575-.023-1.637,0-3.251,0-4.888a2.217,2.217,0,0,0-.045-.531H546.326a1.225,1.225,0,0,1-1.386-1.371V9.864c0-1.15.4-1.57,1.587-1.57h12.924V2.035H536.265ZM649.289,13.049H637.931c-.962,0-1.409-.442-1.409-1.393V9.842c0-1.15.382-1.526,1.544-1.526h12.968V2.035H627.87V30.5h23.678V24.219H637.84a1.174,1.174,0,0,1-1.319-1.106c-.022-1-.022-1.991,0-2.964a1.15,1.15,0,0,1,1.074-1.084h11.135c.445,0,.58-.133.58-.575-.022-.752,0-1.526,0-2.278V13.071Zm-52.633,15.46c.4.2.738.376,1.073.509a27.239,27.239,0,0,0,8.563,2.057,23.928,23.928,0,0,0,8.318-.553,10.871,10.871,0,0,0,6.283-4.092,7.852,7.852,0,0,0,.11-9.046,9.432,9.432,0,0,0-4.248-2.853,44.247,44.247,0,0,0-6.55-1.615,16.465,16.465,0,0,1-3.376-1.017,1.9,1.9,0,0,1-.224-3.406,3.9,3.9,0,0,1,1.364-.575,14.269,14.269,0,0,1,6.953.464c1.14.332,2.259.8,3.421,1.194.849-1.991,1.676-4,2.528-6.016a2.083,2.083,0,0,0-.291-.155,5.8,5.8,0,0,0-.536-.243A24.014,24.014,0,0,0,610.9,1.327a20.017,20.017,0,0,0-7.311.973c-3.577,1.327-6.171,3.561-6.641,7.52a6.885,6.885,0,0,0,2.147,6.281,9.119,9.119,0,0,0,3.533,1.969c2.281.641,4.606,1.128,6.909,1.747a20.479,20.479,0,0,1,2.974,1.017,1.779,1.779,0,0,1,1.052,1.924,1.92,1.92,0,0,1-1.322,1.592,5.562,5.562,0,0,1-.871.265,15.816,15.816,0,0,1-6.976-.4c-1.722-.464-3.376-1.128-5.12-1.7-.85,1.9-1.744,3.915-2.683,5.994Zm-98.894-26.5a3.927,3.927,0,0,0,.179.487q5.9,13.8,11.828,27.625a.613.613,0,0,0,.671.442h8.072a.721.721,0,0,0,.8-.531Q525.186,16.3,531.055,2.61c.067-.177.134-.354.223-.575h-8.317c-.134,0-.335.2-.38.332-.336.752-.671,1.526-.984,2.3l-5.433,12.806a1.386,1.386,0,0,1-1.141,1c-.626.066-1.073-.288-1.408-1.062q-3.085-7.431-6.126-14.863a.708.708,0,0,0-.783-.509h-8.921Zm97.4,26.829a1.383,1.383,0,0,1,.067-.288c1.073-2.411,2.147-4.844,3.242-7.254.224-.487.581-.575,1.118-.287a20.228,20.228,0,0,0,7.267,2.389c1.118.155,2.236.133,3.376.2v-.155c-.4-.111-.782-.2-1.185-.31a13.212,13.212,0,0,1-5.59-2.588,13.482,13.482,0,0,0-3.287-2.19,18.271,18.271,0,0,1-2.035-1.283,10.939,10.939,0,0,1-1.61,4.844,10.889,10.889,0,0,1-3.756,3.495c.8,1.15,1.543,2.234,2.37,3.428Zm18.625-16.5a.915.915,0,0,0,.223.066,18.871,18.871,0,0,1,7.289,3.207c1.723,1.261,3.489,2.411,5.209,3.583V8.25a2.285,2.285,0,0,0-.178.4c-.714,1.7-1.431,3.384-2.146,5.087-.291.685-.492.752-1.206.464-1.074-.442-2.149-.907-3.242-1.283a12.88,12.88,0,0,0-5.948-.6Zm-54.511.42a.32.32,0,0,1-.045.088c.157.088.335.2.492.287,1.185.686,2.37,1.371,3.555,2.079a.818.818,0,0,1,.492.752c-.022,2.234,0,4.49,0,6.746,0,.575-.179.752-.76.752h-1.632a.279.279,0,0,1-.022.133c.827.509,1.655,1.017,2.5,1.548V12.762Z" transform="translate(-359.807 -0.086)" fill="#fff"/>
      <path id="Path_88665" data-name="Path 88665" d="M54.779.312H57.8A2.1,2.1,0,0,0,58.156.4a16.364,16.364,0,0,1,9.189,4.092A5.8,5.8,0,0,0,68.4,5.2a15.955,15.955,0,0,1,5.12,3.959c.76.907,1.409,1.9,2.124,2.853a.9.9,0,0,1,.045-.155C77.563,5.886,81.7,2.3,87.781.8c.984-.2,1.967-.31,2.951-.487H94.4a4.3,4.3,0,0,0,.514.111,16.662,16.662,0,0,1,8.116,2.787c1.878,1.283,3.712,2.61,5.522,3.981.962.73,1.834,1.592,2.728,2.411a.628.628,0,0,1,0,1.018c-2.1,1.858-4.2,3.693-6.305,5.551a.647.647,0,0,1-1.029-.088,8.117,8.117,0,0,0-4.494-2.964,6.461,6.461,0,0,0-5.97,1.349c-2.415,2.145-2.5,6.193-1.431,8.471a.828.828,0,0,0,.559.376,6.408,6.408,0,0,0,3.4-.575,8.856,8.856,0,0,0,3.041-2.477c.425-.509.671-.509,1.185-.11.291.221.6.442.917.641a35.036,35.036,0,0,1,6.216,4.623c.492.487,1.029.907,1.587,1.393.067-.11.112-.177.134-.221.917-2.079,1.856-4.158,2.772-6.237q4.159-9.356,8.273-18.711A.942.942,0,0,1,121.118,1h9.413a1.35,1.35,0,0,1,.671.133c1.543,1.017,3.085,2.057,4.606,3.118a1.662,1.662,0,0,1,.537.642q6.507,14.6,12.968,29.217c.335.752.112,1.084-.738,1.084h-9.838a1.573,1.573,0,0,1-.894-.265c-1.252-.8-2.46-1.659-3.734-2.433a3.064,3.064,0,0,1-1.61-2.057c-.089-.376-.313-.442-.671-.442H125.7a.562.562,0,0,0-.626.42c-.514,1.349-1.073,2.7-1.565,4.07a.937.937,0,0,1-1.028.708c-3.2-.022-6.395,0-9.569-.022a2.036,2.036,0,0,1-1.006-.288c-1.185-.73-2.347-1.5-3.51-2.256-.537.332-1.073.686-1.61,1a19.043,19.043,0,0,1-10.151,2.234,16.181,16.181,0,0,1-8.161-2.145c-2.281-1.394-4.584-2.787-6.775-4.313a20.785,20.785,0,0,1-3.086-2.853,20.613,20.613,0,0,1-1.632-2.278c-.492,1.062-.917,2.234-1.52,3.318A16.521,16.521,0,0,1,50.2,31.741a3.812,3.812,0,0,0-.872-.6,16.118,16.118,0,0,1-5.769-4.512c-.4-.509-.782-1.017-1.252-1.659v.708c0,2.831.022,5.662.045,8.493,0,.885-.134,1-1.028,1-2.638,0-5.277-.022-7.915,0a3.351,3.351,0,0,1-2.057-.6c-1.118-.8-2.258-1.57-3.376-2.366-.38-.265-.76-.553-1.14-.84a3.476,3.476,0,0,0-.291.487,1.038,1.038,0,0,1-1.1.641c-1.252-.044-2.5,0-3.756,0a1.148,1.148,0,0,1-.671-.133c-1.923-1.3-4.092-2.278-5.657-4.114v6.082c0,.73-.134.862-.894.862H5.97a2.04,2.04,0,0,1-1.1-.31C3.622,34.063,2.393,33.2,1.163,32.36a1.67,1.67,0,0,0-.492-.31C.09,31.9,0,31.564,0,31.1V1.794C0,1.152.179.976.805.954H8.72a1.1,1.1,0,0,1,.6.133c1.5,1,3,1.991,4.494,3.008a2.552,2.552,0,0,1,.715.752c1.118,1.747,2.191,3.517,3.287,5.286.782,1.239,1.543,2.477,2.348,3.782.134-.221.246-.376.358-.553,2.37-3.937,4.762-7.9,7.132-11.833a.98.98,0,0,1,.961-.6h7.848a1.223,1.223,0,0,1,.648.155c1.274.84,2.5,1.769,3.8,2.588a2.249,2.249,0,0,1,1.252,2.433,8.964,8.964,0,0,0,0,1.548,1.487,1.487,0,0,0,.067.376A2.81,2.81,0,0,0,42.46,7.7,16.142,16.142,0,0,1,51.828.865c.984-.243,1.99-.354,2.951-.553M1.319,2.258V30.724H9.234v-10.2a1.249,1.249,0,0,1,.939-1.371,1.227,1.227,0,0,1,1.476.686c1.655,2.61,3.287,5.22,4.919,7.851a.722.722,0,0,0,.738.4,19.289,19.289,0,0,1,2.258,0,1.421,1.421,0,0,0,1.543-.885c1.52-2.61,3.085-5.175,4.651-7.763a1.259,1.259,0,0,1,1.565-.685,1.319,1.319,0,0,1,.872,1.438c0,2.765,0,5.529.022,8.272v2.256h7.937V2.258c-.156,0-.246-.022-.335-.022H29.156c-.358,0-.47.177-.6.42-1.61,2.7-3.242,5.375-4.852,8.073l-3.689,6.1a1.273,1.273,0,0,1-2.325,0c-.067-.11-.157-.243-.224-.354-2.862-4.6-5.7-9.2-8.564-13.8a.79.79,0,0,0-.76-.42H1.9a4.885,4.885,0,0,0-.559.022ZM108.6,30.768h8.608c.157,0,.38-.221.447-.376.514-1.283,1.006-2.566,1.52-3.849a1.27,1.27,0,0,1,1.431-.951h10.263a1.287,1.287,0,0,1,1.453,1c.492,1.239.984,2.455,1.431,3.716a.643.643,0,0,0,.715.509c2.437-.022,4.874,0,7.312,0h1.207a3.892,3.892,0,0,0-.179-.487q-6.1-13.8-12.23-27.625a.625.625,0,0,0-.671-.42h-8.116a.732.732,0,0,0-.783.531c-3.421,7.763-6.887,15.526-10.307,23.29-.693,1.548-1.364,3.1-2.079,4.733ZM56.3,1.573A15.088,15.088,0,0,0,41.141,16.48a15.161,15.161,0,0,0,30.319.044A15.068,15.068,0,0,0,56.3,1.573m48.9,5.242c-.134-.155-.2-.265-.313-.376a13.679,13.679,0,0,0-5.1-3.561,19.61,19.61,0,0,0-10.867-1,14.97,14.97,0,0,0-8.854,4.733,14.163,14.163,0,0,0-3.645,10.926c.425,5.928,3.443,10.108,8.921,12.519A18.4,18.4,0,0,0,94.6,31.343a15.585,15.585,0,0,0,8.206-2.964c.85-.642,1.61-1.394,2.437-2.123-1.9-1.681-3.712-3.251-5.545-4.888-.268.288-.47.531-.693.752a8.241,8.241,0,0,1-5.388,2.455c-3.13.133-5.679-.885-7.244-3.694a9.021,9.021,0,0,1-.984-5.441,7.9,7.9,0,0,1,2.035-4.755,8.075,8.075,0,0,1,10.062-.973c.8.531,1.52,1.217,2.325,1.858,1.744-1.548,3.533-3.119,5.366-4.733Z" transform="translate(0 -0.312)" fill="#fff"/>
      <path id="Path_88666" data-name="Path 88666" d="M747.559,7.333c.2,0,.38-.022.559-.022,4.673,0,9.368-.044,14.042.022a14.456,14.456,0,0,1,8,2.234c3.287,2.19,4.539,5.33,4.315,9.157a8.818,8.818,0,0,1-2.5,5.927A16.592,16.592,0,0,1,769.9,26.31a1.319,1.319,0,0,0-.425,2.146c1.587,2.3,3.2,4.623,4.785,6.923.09.133.179.265.291.442-.179,0-.313.044-.447.044h-8.34a.819.819,0,0,1-.738-.4c-1.431-2.123-2.884-4.225-4.315-6.348a1.537,1.537,0,0,0-1.476-.774c-.492.022-.961,0-1.453,0a1.279,1.279,0,0,0-1.408,1.437v5.574a3.571,3.571,0,0,1-.023.465h-8.787Zm8.809,10.572V20.67a1.24,1.24,0,0,0,1.252,1.371c1.409,0,2.84.022,4.248-.088a3.758,3.758,0,0,0,3.645-3.583c.156-2.367-.939-4.026-3.153-4.4a30.9,30.9,0,0,0-4.539-.2,1.275,1.275,0,0,0-1.453,1.438Z" transform="translate(-542.169 -5.377)" fill="#1228f3"/>
      <path id="Path_88667" data-name="Path 88667" d="M642.188,7.421h23.164V13.7H652.429c-1.163,0-1.565.4-1.588,1.57v1.814a1.225,1.225,0,0,0,1.386,1.371h11.358a3.613,3.613,0,0,0,.045.531v4.888c0,.442-.134.575-.581.575h-10.6c-1.207,0-1.61.4-1.61,1.592v2.167c0,.951.447,1.394,1.409,1.394h13.639v6.3H642.166V7.421Z" transform="translate(-465.732 -5.468)" fill="#1228f3"/>
      <path id="Path_88668" data-name="Path 88668" d="M997.019,18.458V21.6c0,.752-.022,1.526,0,2.278,0,.442-.135.575-.583.575H985.3a1.168,1.168,0,0,0-1.072,1.084c-.022,1-.022,1.991,0,2.964,0,.685.536,1.106,1.319,1.106h13.7v6.281H975.575V7.421h23.164V13.7H985.771c-1.162,0-1.541.4-1.541,1.526v1.814c0,.951.445,1.394,1.407,1.394H997Z" transform="translate(-707.538 -5.468)" fill="#1228f3"/>
      <path id="Path_88669" data-name="Path 88669" d="M861.973,32.038c.939-2.079,1.833-4.092,2.683-5.994,1.744.6,3.421,1.239,5.12,1.7a15.8,15.8,0,0,0,6.976.4,3.024,3.024,0,0,0,.871-.265,1.92,1.92,0,0,0,1.321-1.592,1.807,1.807,0,0,0-1.052-1.924,20.5,20.5,0,0,0-2.974-1.017c-2.3-.6-4.628-1.106-6.909-1.747a9.124,9.124,0,0,1-3.533-1.969,6.885,6.885,0,0,1-2.146-6.281c.469-3.959,3.063-6.193,6.641-7.52a19.444,19.444,0,0,1,7.311-.973,24.012,24.012,0,0,1,9.146,1.836c.179.088.357.155.536.243.088.044.157.088.291.155-.852,2.013-1.7,4.025-2.528,6.016-1.184-.42-2.28-.862-3.421-1.194a13.991,13.991,0,0,0-6.954-.464,4.358,4.358,0,0,0-1.364.575,1.9,1.9,0,0,0,.224,3.406,19.2,19.2,0,0,0,3.376,1.017,44.279,44.279,0,0,1,6.551,1.614,9.318,9.318,0,0,1,4.248,2.853,7.852,7.852,0,0,1-.11,9.046,10.978,10.978,0,0,1-6.284,4.092,23.928,23.928,0,0,1-8.317.553,27.1,27.1,0,0,1-8.564-2.057c-.335-.155-.671-.31-1.073-.509Z" transform="translate(-625.148 -3.598)" fill="#1228f3"/>
      <path id="Path_88670" data-name="Path 88670" d="M502.058,7.256h8.921a.7.7,0,0,1,.783.509c2.035,4.954,4.092,9.909,6.126,14.863.335.8.783,1.128,1.409,1.062a1.385,1.385,0,0,0,1.14-1L525.87,9.888c.336-.774.648-1.526.984-2.3.067-.155.246-.332.38-.332h8.318c-.09.221-.157.4-.224.575-3.913,9.135-7.848,18.291-11.739,27.426a.728.728,0,0,1-.8.531h-8.072a.613.613,0,0,1-.671-.442q-5.9-13.8-11.828-27.625a3.89,3.89,0,0,1-.179-.487Z" transform="translate(-364.102 -5.332)" fill="#1228f3"/>
      <path id="Path_88671" data-name="Path 88671" d="M4.8,7.278c.2,0,.38-.022.559-.022H11.6a.751.751,0,0,1,.76.42q4.26,6.9,8.564,13.8c.067.11.157.243.224.354a1.279,1.279,0,0,0,2.325,0l3.689-6.1c1.632-2.7,3.242-5.374,4.852-8.073.134-.221.246-.42.6-.42h6.663a2.1,2.1,0,0,1,.335.022V35.721H31.674V33.465c0-2.765,0-5.529-.022-8.272a1.335,1.335,0,0,0-.872-1.438,1.238,1.238,0,0,0-1.565.686c-1.565,2.588-3.13,5.153-4.651,7.763a1.422,1.422,0,0,1-1.543.885,12.836,12.836,0,0,0-2.258,0,.777.777,0,0,1-.738-.4c-1.632-2.632-3.287-5.242-4.919-7.852a1.272,1.272,0,0,0-2.415.685v10.2H4.8Z" transform="translate(-3.48 -5.332)" fill="#1228f3"/>
      <path id="Path_88672" data-name="Path 88672" d="M395.2,35.788c.716-1.615,1.386-3.185,2.079-4.733q5.165-11.645,10.308-23.29a.717.717,0,0,1,.783-.531c2.705.022,5.411,0,8.116,0a.6.6,0,0,1,.671.42q6.1,13.8,12.23,27.625a3.894,3.894,0,0,1,.179.487h-8.519a.63.63,0,0,1-.715-.509c-.447-1.239-.961-2.477-1.431-3.716a1.287,1.287,0,0,0-1.454-1H407.183a1.3,1.3,0,0,0-1.431.951c-.514,1.283-.984,2.566-1.521,3.848-.067.155-.291.376-.447.376-2.84.022-5.657,0-8.608,0ZM412.325,24.64h1.923a1.241,1.241,0,0,0,1.23-1.814c-.626-1.659-1.3-3.318-1.945-5a1.241,1.241,0,0,0-1.23-.929,1.258,1.258,0,0,0-1.23.929c-.648,1.637-1.3,3.3-1.923,4.932a1.271,1.271,0,0,0,1.274,1.88h1.9Z" transform="translate(-286.602 -5.332)" fill="#1228f3"/>
      <path id="Path_88673" data-name="Path 88673" d="M164.9,4.914a15.068,15.068,0,0,1,15.159,14.951,15.161,15.161,0,0,1-30.318-.044A15.073,15.073,0,0,1,164.9,4.914m.984,19.132h-1.342a2.146,2.146,0,0,0-.85.088c-.223.088-.514.376-.492.553a.7.7,0,0,0,.537.509,24.154,24.154,0,0,0,2.817-.2.613.613,0,0,0,.537-.8,12.537,12.537,0,0,0-.38-1.305c-.224-.642-.492-1.283-.693-1.769.961-.575,1.833-1.106,2.705-1.637a4.86,4.86,0,0,0,7.088.11,4.679,4.679,0,0,0,0-6.525c-1.967-2.013-4.606-1.924-7.177.243a4.778,4.778,0,0,0-3.734-1.681,4.834,4.834,0,0,0-3.689,1.725,4.879,4.879,0,0,0-7.065-.42,4.7,4.7,0,0,0-.291,6.48,4.561,4.561,0,0,0,3.376,1.615,4.882,4.882,0,0,0,3.98-1.747,4.844,4.844,0,0,0,3.265,1.747.394.394,0,0,1,.291.2c.358.885.693,1.769,1.118,2.831Zm-.6,7.1c.268-.022.626-.044.984-.088a5.224,5.224,0,0,0,4.427-3.8c.157-.575,0-.973-.447-1.084s-.783.111-.939.686a3.593,3.593,0,0,1-2.661,2.654,4.947,4.947,0,0,1-6.037-2.787c-.224-.531-.626-.73-1.051-.531-.38.177-.492.575-.291,1.084.067.155.134.288.2.442a6.328,6.328,0,0,0,5.858,3.428Z" transform="translate(-108.601 -3.65)" fill="#1228f3"/>
      <path id="Path_88674" data-name="Path 88674" d="M306.793,10.015c-1.833,1.615-3.622,3.185-5.366,4.733-.8-.641-1.52-1.327-2.325-1.858a8.078,8.078,0,0,0-10.062.973A7.9,7.9,0,0,0,287,18.618a9.157,9.157,0,0,0,.984,5.441c1.565,2.809,4.114,3.849,7.244,3.694a8.137,8.137,0,0,0,5.388-2.455c.224-.221.447-.465.693-.752,1.833,1.615,3.645,3.207,5.545,4.888-.827.73-1.587,1.482-2.437,2.123a15.653,15.653,0,0,1-8.206,2.964,18.865,18.865,0,0,1-9.257-1.283c-5.478-2.411-8.5-6.591-8.921-12.518a14.164,14.164,0,0,1,3.645-10.926,15.093,15.093,0,0,1,8.854-4.733,19.589,19.589,0,0,1,10.867,1,13.862,13.862,0,0,1,5.1,3.561c.09.111.179.221.313.376Z" transform="translate(-201.616 -3.507)" fill="#1228f3"/>
      <path id="Path_88675" data-name="Path 88675" d="M779.616,35.019v-2.7a1.275,1.275,0,0,1,1.453-1.437,34.318,34.318,0,0,1,4.539.2c2.214.376,3.309,2.013,3.153,4.4a3.791,3.791,0,0,1-3.644,3.583c-1.409.111-2.817.088-4.248.088a1.218,1.218,0,0,1-1.252-1.371Zm6.126.332v2.234a2.225,2.225,0,0,0,1.677-2.234Z" transform="translate(-565.418 -22.483)" fill="#fff"/>
      <path id="Path_88676" data-name="Path 88676" d="M448.927,50.124h-1.878a1.277,1.277,0,0,1-1.274-1.88c.626-1.659,1.274-3.3,1.923-4.932a1.216,1.216,0,0,1,1.23-.929,1.26,1.26,0,0,1,1.23.929c.648,1.659,1.3,3.318,1.945,5a1.247,1.247,0,0,1-1.23,1.814c-.648.022-1.3,0-1.923,0Z" transform="translate(-323.202 -30.823)" fill="#fff"/>
      <path id="Path_88677" data-name="Path 88677" d="M173.683,41.683c-.425-1.062-.76-1.969-1.118-2.831a.463.463,0,0,0-.291-.2,4.845,4.845,0,0,1-3.265-1.747,4.758,4.758,0,1,1-7.065-6.348,4.879,4.879,0,0,1,7.065.42,4.834,4.834,0,0,1,3.689-1.725,4.919,4.919,0,0,1,3.734,1.681c2.571-2.167,5.232-2.234,7.177-.243a4.679,4.679,0,0,1,0,6.524,4.88,4.88,0,0,1-7.088-.11c-.894.531-1.766,1.062-2.705,1.637.2.509.447,1.128.693,1.769a8.751,8.751,0,0,1,.38,1.305.629.629,0,0,1-.537.8q-1.409.166-2.817.2A.816.816,0,0,1,171,42.3c0-.177.268-.442.492-.553a2.65,2.65,0,0,1,.85-.088h1.342Zm-.984-4.269a3.473,3.473,0,1,0,.022-6.945,3.531,3.531,0,0,0-3.51,3.495,3.488,3.488,0,0,0,3.488,3.45m-7.468,0a3.407,3.407,0,0,0,2.84-1.438.845.845,0,0,0,.112-.619,5.294,5.294,0,0,1,0-2.831.984.984,0,0,0-.112-.664,3.5,3.5,0,0,0-4.27-1.106,3.457,3.457,0,0,0-2.012,3.848,3.5,3.5,0,0,0,3.443,2.809m14.533,0a3.678,3.678,0,0,0,3.823-2.654,3.5,3.5,0,0,0-6.126-2.986.97.97,0,0,0-.179.686,5.145,5.145,0,0,1,0,2.964.865.865,0,0,0,.112.619,3.284,3.284,0,0,0,2.392,1.371Z" transform="translate(-116.399 -21.293)" fill="#fff"/>
      <path id="Path_88678" data-name="Path 88678" d="M190.041,87.092a6.328,6.328,0,0,1-5.858-3.428c-.067-.133-.134-.287-.2-.442-.2-.509-.09-.907.291-1.084.425-.2.827,0,1.051.531a4.947,4.947,0,0,0,6.037,2.787,3.592,3.592,0,0,0,2.661-2.654c.179-.575.492-.8.939-.686.425.111.6.509.447,1.084A5.194,5.194,0,0,1,190.98,87c-.358.044-.715.066-.984.088Z" transform="translate(-133.361 -59.601)" fill="#fff"/>
      <path id="Path_88679" data-name="Path 88679" d="M195.709,40.718a3.473,3.473,0,1,1,3.555-3.428,3.5,3.5,0,0,1-3.555,3.428m.09-1.747a1.718,1.718,0,0,0,1.722-1.725,1.744,1.744,0,1,0-3.488.044,1.679,1.679,0,0,0,1.766,1.681" transform="translate(-139.409 -24.58)" fill="#1228f3"/>
      <path id="Path_88680" data-name="Path 88680" d="M168.452,40.665a3.488,3.488,0,1,1,2.84-5.552.963.963,0,0,1,.112.664,5.294,5.294,0,0,0,0,2.831.865.865,0,0,1-.112.619,3.407,3.407,0,0,1-2.84,1.438m1.789-3.428a1.733,1.733,0,1,0-3.466-.044,1.733,1.733,0,0,0,3.466.044" transform="translate(-119.62 -24.528)" fill="#1228f3"/>
      <path id="Path_88681" data-name="Path 88681" d="M223.966,40.787a3.247,3.247,0,0,1-2.392-1.371.865.865,0,0,1-.112-.619,5.146,5.146,0,0,0,0-2.964.871.871,0,0,1,.179-.685,3.479,3.479,0,0,1,4.248-.951,3.419,3.419,0,0,1,1.878,3.937,3.638,3.638,0,0,1-3.823,2.654Zm2.169-3.473a1.756,1.756,0,0,0-3.51-.022,1.755,1.755,0,0,0,3.51,0Z" transform="translate(-160.601 -24.63)" fill="#1228f3"/>
      <path id="Path_88682" data-name="Path 88682" d="M200.575,43.637a1.725,1.725,0,1,1-.022-3.45,1.725,1.725,0,1,1,.022,3.45" transform="translate(-144.187 -29.231)" fill="#fff"/>
      <path id="Path_88683" data-name="Path 88683" d="M175.017,41.823a1.673,1.673,0,0,1-1.744,1.681,1.725,1.725,0,0,1,0-3.45,1.733,1.733,0,0,1,1.744,1.769" transform="translate(-124.418 -29.135)" fill="#fff"/>
      <path id="Path_88684" data-name="Path 88684" d="M229.258,41.96a1.732,1.732,0,0,1-1.722,1.725,1.714,1.714,0,1,1,1.722-1.7Z" transform="translate(-163.724 -29.282)" fill="#fff"/>
    </g>
  </g>
</svg>
